<svg width="56" height="55" viewBox="0 0 56 55" fill="none" xmlns="http://www.w3.org/2000/svg">
<path d="M29.2914 53.5383C32.2003 36.8244 36.858 32.1667 53.5719 29.2577C54.0179 29.2577 54.4456 29.0806 54.7609 28.7652C55.0763 28.4499 55.2534 28.0222 55.2534 27.5763C55.2534 27.1303 55.0763 26.7026 54.7609 26.3873C54.4456 26.0719 54.0179 25.8948 53.5719 25.8948C36.8244 23.0531 32.1667 18.3954 29.2914 1.68148C29.2914 1.23552 29.1142 0.807833 28.7989 0.492494C28.4835 0.177156 28.0558 0 27.6099 0C27.1639 0 26.7362 0.177156 26.4209 0.492494C26.1056 0.807833 25.9284 1.23552 25.9284 1.68148C23.0531 18.3954 18.3954 23.0531 1.68148 25.9284C1.23552 25.9284 0.807833 26.1056 0.492494 26.4209C0.177156 26.7362 0 27.1639 0 27.6099C0 28.0558 0.177156 28.4835 0.492494 28.7989C0.807833 29.1142 1.23552 29.2914 1.68148 29.2914C18.3954 32.2003 23.0531 36.858 25.962 53.5719C26.0231 53.9723 26.2265 54.3371 26.535 54.5995C26.8435 54.8618 27.2364 55.004 27.6413 54.9999C28.0462 54.9958 28.4361 54.8457 28.7392 54.5772C29.0424 54.3087 29.2384 53.9398 29.2914 53.5383Z" fill="#FF6428"/>
</svg>
