<svg width="20" height="21" viewBox="0 0 20 21" fill="none" xmlns="http://www.w3.org/2000/svg">
<path fill-rule="evenodd" clip-rule="evenodd" d="M19.0108 11.3955C19.5375 11.5616 19.8299 12.1232 19.6638 12.6499L19.4146 13.4404L19.0807 14.2464L18.6778 15.0203L18.209 15.7562L17.6779 16.4483L17.0885 17.0916L16.4452 17.681L15.753 18.2121L15.0172 18.6809L14.282 19.0636C13.7922 19.3186 13.1883 19.1282 12.9333 18.6384C12.6783 18.1485 12.8687 17.5446 13.3585 17.2896L14.0163 16.9472L14.6048 16.5723L15.1584 16.1475L15.6729 15.676L16.1444 15.1615L16.5692 14.6079L16.9441 14.0194L17.2663 13.4004L17.5334 12.7557L17.7563 12.0485C17.9224 11.5218 18.484 11.2294 19.0108 11.3955Z" fill="#D6BC97"/>
<path fill-rule="evenodd" clip-rule="evenodd" d="M19.0966 9.43356C18.5574 9.55309 18.0234 9.21289 17.9039 8.6737L17.7434 7.94979L17.5336 7.28426L17.2665 6.63955L16.9443 6.02057L16.5694 5.43203L16.1445 4.8784L15.6731 4.36391L15.1586 3.89247L14.605 3.46766L14.0164 3.09272L13.3975 2.77049L12.7528 2.50345L12.0872 2.29361L11.4059 2.14257L10.7141 2.05148L10.0169 2.02105L9.31976 2.05148L8.62791 2.14257L7.94662 2.29361L7.28109 2.50345L6.63638 2.7705L6.0174 3.09271L5.42886 3.46766L4.87523 3.89247L4.36074 4.36391L3.8893 4.87841L3.46449 5.43203L3.08955 6.02056L2.76732 6.63955L2.50028 7.28424L2.29044 7.94979L2.1394 8.63107L2.04832 9.32292L2.01788 10.0201L2.04831 10.7173L2.1394 11.4091L2.29044 12.0904L2.50028 12.7559L2.76732 13.4006L3.08955 14.0196L3.46449 14.6082L3.8893 15.1618L4.36075 15.6763L4.87524 16.1477L5.42885 16.5725L6.01741 16.9475L6.63638 17.2697L7.28107 17.5367L7.94662 17.7466L8.6279 17.8976L9.31975 17.9887L10.0605 18.021C10.6123 18.0451 11.0401 18.512 11.016 19.0637C10.9919 19.6155 10.5251 20.0432 9.9733 20.0191L9.14528 19.983L8.28028 19.8691L7.42849 19.6803L6.5964 19.4179L5.79034 19.084L5.01645 18.6812L4.28061 18.2124L3.58844 17.6813L2.94518 17.0918L2.35575 16.4486L1.82462 15.7564L1.35584 15.0206L0.952983 14.2467L0.619104 13.4406L0.356747 12.6085L0.167908 11.7567L0.0540273 10.8917L0.0159709 10.0201L0.0540295 9.14845L0.167909 8.28345L0.356747 7.43166L0.619102 6.59957L0.952982 5.79351L1.35584 5.01962L1.82462 4.28378L2.35575 3.59161L2.94518 2.94835L3.58843 2.35892L4.28061 1.82779L5.01645 1.35901L5.79034 0.956152L6.5964 0.622272L7.42849 0.359916L8.28028 0.171078L9.14528 0.0571974L10.0169 0.0191407L10.8886 0.0571972L11.7536 0.171078L12.6054 0.359915L13.4374 0.622272L14.2435 0.956152L15.0174 1.35901L15.7532 1.82779L16.4454 2.35892L17.0887 2.94835L17.6781 3.5916L18.2092 4.28378L18.678 5.01962L19.0809 5.79351L19.4147 6.59957L19.6771 7.43166L19.8565 8.24082C19.976 8.78001 19.6358 9.31402 19.0966 9.43356Z" fill="#D6BC97"/>
</svg>
